<?xml version="1.0" encoding="UTF-8" standalone="no"?>
<svg
   xmlns:dc="http://purl.org/dc/elements/1.1/"
   xmlns:cc="http://creativecommons.org/ns#"
   xmlns:rdf="http://www.w3.org/1999/02/22-rdf-syntax-ns#"
   xmlns:svg="http://www.w3.org/2000/svg"
   xmlns="http://www.w3.org/2000/svg"
   xmlns:sodipodi="http://sodipodi.sourceforge.net/DTD/sodipodi-0.dtd"
   xmlns:inkscape="http://www.inkscape.org/namespaces/inkscape"
   t="1554277845480"
   class="icon"
   style=""
   viewBox="0 0 1024 1024"
   version="1.1"
   p-id="12189"
   width="200"
   height="200"
   id="svg8"
   sodipodi:docname="gald-logo.svg"
   inkscape:version="0.92.3 (2405546, 2018-03-11)">
  <metadata
     id="metadata12">
    <rdf:RDF>
      <cc:Work
         rdf:about="">
        <dc:format>image/svg+xml</dc:format>
        <dc:type
           rdf:resource="http://purl.org/dc/dcmitype/StillImage" />
        <dc:title></dc:title>
      </cc:Work>
    </rdf:RDF>
  </metadata>
  <sodipodi:namedview
     pagecolor="#ffffff"
     bordercolor="#666666"
     borderopacity="1"
     objecttolerance="10"
     gridtolerance="10"
     guidetolerance="10"
     inkscape:pageopacity="0"
     inkscape:pageshadow="2"
     inkscape:window-width="1920"
     inkscape:window-height="1016"
     id="namedview10"
     showgrid="false"
     inkscape:zoom="3.337544"
     inkscape:cx="68.912616"
     inkscape:cy="98.017553"
     inkscape:window-x="0"
     inkscape:window-y="27"
     inkscape:window-maximized="1"
     inkscape:current-layer="svg8" />
  <defs
     id="defs4">
    <style
       type="text/css"
       id="style2" />
  </defs>
  <path
     d="m 474.02667,227.92533 c 3.54409,63.83715 -25.82058,93.21672 -69.76,133.9904 -57.85159,52.11836 -126.75005,107.0678 -132.864,182.74134 -6.65626,88.56875 48.82508,143.69685 118.30608,150.04687 57.64831,2.59702 113.651,-45.29662 134.15421,-47.22857 33.73983,19.94566 69.37357,48.73427 126.91464,32.4009 53.41209,-19.36322 102.67477,-62.67203 103.42044,-146.77433 2.66623,-128.81877 -74.74955,-199.11755 -155.00444,-255.65767 -57.344,-39.8592 -109.65333,-62.24214 -109.65333,-62.24214 -12.59603,-4.73321 -17.13347,0.94247 -15.5136,12.7232 z m 14.62613,1.68107 c 19.36213,9.97547 61.9264,36.94933 98.13333,67.46453 69.69684,69.7083 128.95741,130.24892 136.82744,239.11868 1.23513,71.1093 -47.23929,101.72877 -75.64344,105.20986 -13.01333,1.536 -31.03573,-1.3824 -49.06666,-6.13547 16.98986,-13.0304 39.01486,-31.79747 40.9344,-57.79627 4.4432,-60.17994 -63.61531,-119.61614 -115.56694,-118.97427 -55.24221,6.78996 -107.64254,63.92509 -112.71401,115.6472 -2.15413,28.99944 13.36606,60.13464 35.27401,76.60281 -79.51679,36.11433 -157.14476,-22.3485 -152.96,-104.3968 9.28484,-77.71955 76.96846,-115.77221 124.50987,-159.0272 48.40332,-43.74143 79.78233,-87.91538 67.31093,-154.47894 -0.31393,-2.9493 1.18891,-4.01096 2.96107,-3.23413 z m 35.7632,255.88053 c 43.35559,3.41819 107.2188,41.91406 100.64213,89.07094 -3.24793,23.2887 -29.8496,33.72373 -52.0192,40.92586 14.90237,-46.7327 -25.03905,-66.54012 -52.02773,-67.29386 -38.76956,0.0689 -66.2331,35.20227 -50.5344,70.21226 -18.87901,-11.47979 -33.16971,-24.1553 -35.62291,-45.87446 -4.68356,-44.88468 49.76934,-84.94867 89.56211,-87.04074 z M 333.48267,705.28 c -27.904,0 -62.39574,29.01333 -62.39574,58.00107 0,37.52106 36.18134,49.33973 62.39574,47.14666 53.69173,-4.48 19.88266,-52.24106 -16.98134,-58.3424 -2.06506,-0.45226 -3.39626,0.72534 -3.84,2.688 -0.44373,1.96267 0.44374,3.43894 2.21014,3.92534 24.3712,2.09066 49.4592,40.14933 19.0464,42.88 -23.46667,0 -46.0032,-14.22507 -46.0032,-37.80267 0,-23.58613 22.53653,-48.67413 46.0032,-48.67413 2.21866,0 4.43733,-2.4576 4.43733,-4.9152 0,-2.4576 -3.10613,-4.90667 -4.87253,-4.90667 z m 340.6848,0 c -1.7664,0 -4.864,2.44907 -4.864,4.90667 0,2.4576 2.21866,4.9152 4.4288,4.9152 59.392,0 62.35306,25.088 62.35306,48.67413 0,23.5776 -22.53653,37.80267 -46.01173,37.80267 -20.66773,-5.53814 -3.4816,-36.38614 7.168,-56.8832 1.67253,-3.03787 5.03467,-4.15574 1.80053,-7.8848 -1.69813,-1.664 -3.712,-0.70827 -4.43733,0.42666 -39.25333,51.712 -29.49973,71.0656 -4.08747,73.1904 26.2144,2.19307 62.39574,-9.6256 62.39574,-47.14666 0,-28.99627 -19.87414,-58.00107 -78.7456,-58.00107 z m -222.0032,0 c -0.90822,-0.0152 -1.81665,0.0132 -2.72214,0.0853 -29.17546,2.26134 -54.22933,37.97334 -50.6368,99.98507 0.11947,2.06507 2.65387,5.504 5.12854,5.30773 2.47466,-0.19626 4.92373,-2.97813 4.77866,-5.56373 -2.9184,-51.67787 18.14187,-78.25067 41.87307,-80.09387 23.7312,-1.85173 49.19467,34.47467 44.3904,55.38134 -8.5504,26.88 -7.85067,-9.53174 -33.8944,-12.3648 -15.13813,-1.6384 -34.37227,12.6464 -39.04,16.75093 -1.87733,1.64693 -1.52747,4.18133 -0.1536,5.2736 1.41653,1.1264 3.80587,-0.3072 5.26507,-1.36533 11.0592,-7.9616 19.14026,-10.61547 25.2928,-10.112 20.07893,1.64693 19.47306,37.05173 34.09066,31.5392 10.28267,-3.90827 17.28,-16.91307 17.32267,-30.93334 -1.04107,-31.59893 -23.7568,-73.3696 -51.69493,-73.89013 z m 135.33866,0 c -0.2667,0.0155 -0.53043,0.0642 -0.78506,0.14507 -28.91094,9.32693 -53.9904,48.05973 -43.3152,75.22986 13.80693,35.1744 52.02773,31.67574 80.768,27.40054 6.0416,-0.896 7.76533,-3.65227 6.82666,-6.51947 -1.00693,-3.02933 -2.5088,-3.8144 -10.20586,-2.14187 -25.32694,3.29387 -51.08907,-1.792 -59.776,-23.90186 -8.6784,-22.10987 5.46133,-53.16267 29.78133,-61.01334 2.29547,-0.73386 3.6864,-3.78026 2.78187,-6.07573 -0.7936,-2.0224 -4.0448,-3.24267 -6.07574,-3.11467 z"
     p-id="12190"
     id="path6"
     style="fill:#ff0000"
     inkscape:connector-curvature="0"
     sodipodi:nodetypes="cccccccccccccccsccccccccscccccssccsccsssssssscccccsscccsccccccccccccccccccccccc" />
</svg>
